Coordinates
version=1
nRows=14
nColumns=42
inDegrees=yes

Units are S.I. units (second, meters, Newtons, ...)
If the header above contains a line with 'inDegrees', this indicates whether rotational values are in degrees (yes) or radians (no).

endheader
time	pelvis_tilt	pelvis_list	pelvis_rotation	pelvis_tx	pelvis_ty	pelvis_tz	hip_flexion_r	hip_adduction_r	hip_rotation_r	knee_angle_r	knee_adduction_r	knee_angle_r_beta	ankle_angle_r	subtalar_angle_r	mtp_angle_r	hip_flexion_l	hip_adduction_l	hip_rotation_l	knee_angle_l	knee_adduction_l	knee_angle_l_beta	ankle_angle_l	subtalar_angle_l	mtp_angle_l	lumbar_extension	lumbar_bending	lumbar_rotation	arm_flex_r	arm_add_r	arm_rot_r	elbow_flex_r	pro_sup_r	wrist_flex_r	wrist_dev_r	arm_flex_l	arm_add_l	arm_rot_l	elbow_flex_l	pro_sup_l	wrist_flex_l	wrist_dev_l
      8.26000000	      4.98690347	     -5.37183736	     -9.30908661	      0.47269876	      0.94481287	      0.17285426	     10.50311318	     -8.03194984	     -8.30031036	     46.06001164	      2.90760994	      0.80389886	      2.96775506	     -5.84274171	     -7.50000265	      5.32856196	     -5.46841624	    -27.25622305	     30.15766985	     -2.53290966	      0.52635063	     16.80376277	      5.03541406	     -7.50000265	    -20.15785515	      2.26100059	     -0.44550159	      9.68274269	    -12.99626353	     21.23604072	     48.20629193	     90.00000001	      0.00000000	      0.00000000	    -13.60996773	    -11.30703840	     -7.78021976	     49.22219154	     90.00000001	      0.00000000	      0.00000000
      8.27000000	      5.12838195	     -5.63313298	     -9.25358013	      0.47423088	      0.94507657	      0.17262784	     10.40261138	     -7.64963060	     -8.75516236	     45.06181753	      2.76990691	      0.78647708	      3.46961911	     -5.16337463	     -7.50000260	      5.03770896	     -5.68791536	    -27.05358776	     30.20623678	     -2.46655303	      0.52719829	     16.93228272	      4.83492137	     -7.50000260	    -20.31681578	      2.46458935	     -0.30398720	      9.68542072	    -12.89921211	     20.96660120	     47.68150205	     90.00000001	      0.00000000	      0.00000000	    -13.61395283	    -11.31489052	     -7.79435840	     49.47095916	     90.00000001	      0.00000000	      0.00000000
      8.28000000	      5.10925109	     -5.62834083	     -9.32557929	      0.47563703	      0.94496593	      0.17248718	     10.70781345	     -7.62682326	     -9.04651993	     44.36746709	      2.83870389	      0.77435838	      3.63460202	     -5.05118680	     -7.50000259	      4.95578525	     -5.58728316	    -27.04648907	     30.17242319	     -2.54928916	      0.52660813	     16.98389362	      4.78092543	     -7.50000259	    -20.25440906	      2.35995261	     -0.14970939	      9.59193550	    -12.87719760	     20.93274155	     47.55927837	     90.00000001	      0.00000000	      0.00000000	    -13.64712496	    -11.34582824	     -7.81323547	     49.52553842	     90.00000001	      0.00000000	      0.00000000
      8.29000000	      5.22190638	     -5.88460549	     -9.27357958	      0.47714185	      0.94520317	      0.17231341	     10.62104638	     -7.20675492	     -9.54067933	     43.26313970	      2.67488683	      0.75508423	      4.06782767	     -4.30045892	     -7.50000255	      4.70690671	     -5.77261528	    -26.84109729	     30.19406965	     -2.56929394	      0.52698593	     17.06571733	      4.60947650	     -7.50000255	    -20.37402634	      2.56653334	      0.00199671	      9.54629705	    -12.81216889	     20.65468416	     46.99477495	     90.00000001	      0.00000000	      0.00000000	    -13.60854704	    -11.30260376	     -7.83323782	     49.75582968	     90.00000001	      0.00000000	      0.00000000
      8.30000000	      5.19698027	     -5.84218958	     -9.38070297	      0.47850598	      0.94508071	      0.17224376	     10.95888049	     -7.22981453	     -9.89456734	     42.54316606	      2.75166143	      0.74251832	      4.22888267	     -4.16545733	     -7.50000254	      4.60435116	     -5.67310876	    -26.89445539	     30.13927204	     -2.55995305	      0.52602953	     17.12967103	      4.54457701	     -7.50000254	    -20.31725374	      2.42128851	      0.16394988	      9.46605606	    -12.78045021	     20.61160686	     46.85377796	     90.00000001	      0.00000000	      0.00000000	    -13.68635955	    -11.29669735	     -7.84796667	     49.78445562	     90.00000001	      0.00000000	      0.00000000
      8.31000000	      5.17598319	     -5.84842038	     -9.48523810	      0.47990160	      0.94499237	      0.17216582	     11.24891069	     -7.17176699	    -10.25675780	     41.73585203	      2.83432683	      0.72842803	      4.39289733	     -4.00669045	     -7.50000253	      4.48934113	     -5.59790685	    -26.90928202	     30.08769743	     -2.58834387	      0.52512938	     17.18883380	      4.47920624	     -7.50000253	    -20.25682069	      2.34477509	      0.36126668	      9.39277598	    -12.77749527	     20.56473033	     46.69120855	     90.00000001	      0.00000000	      0.00000000	    -13.73800451	    -11.26094956	     -7.85620088	     49.82853533	     90.00000001	      0.00000000	      0.00000000
      8.32000000	      5.37927445	     -6.03272418	     -9.37932760	      0.48150042	      0.94532526	      0.17209800	     11.10420635	     -6.90719220	    -11.93047120	     40.62766295	      2.02183698	      0.70908649	      5.52989012	     -0.20892278	     -7.50000237	      4.08635604	     -5.69050573	    -26.44259546	     30.00001442	     -2.44672645	      0.52359903	     17.18826348	      3.86859816	     -7.50000237	    -20.46127270	      2.44947066	      0.33654286	      9.62448862	    -12.08978176	     19.15184161	     44.93330246	     90.00000001	      0.00000000	      0.00000000	    -13.85737426	    -11.15679848	     -8.06211576	     50.21612055	     90.00000001	      0.00000000	      0.00000000
      8.33000000	      5.35090062	     -6.04901446	     -9.48155048	      0.48281887	      0.94527427	      0.17208369	     11.38660441	     -6.79530506	    -12.21459991	     39.75247108	      2.15578670	      0.69381151	      5.62826913	     -0.06789175	     -7.50000235	      3.98166970	     -5.64203620	    -26.47445384	     29.93864223	     -2.48559451	      0.52252788	     17.24252925	      3.80964240	     -7.50000235	    -20.42080758	      2.38413492	      0.53066583	      9.48382213	    -12.12534841	     19.09642481	     44.82163307	     90.00000001	      0.00000000	      0.00000000	    -13.87901346	    -11.07520702	     -8.06189361	     50.22515411	     90.00000001	      0.00000000	      0.00000000
      8.34000000	      5.38120491	     -6.17269271	     -9.56137121	      0.48417224	      0.94535279	      0.17211705	     11.52284743	     -6.53902822	    -12.62194644	     38.74548832	      2.21733553	      0.67623634	      5.67272478	      0.61238844	     -7.50000232	      3.76754072	     -5.77261451	    -26.41522408	     29.90209947	     -2.34177690	      0.52189009	     17.29449506	      3.68936432	     -7.50000232	    -20.45752085	      2.45359999	      0.72113888	      9.42895129	    -12.13651217	     18.89248093	     44.57187040	     90.00000001	      0.00000000	      0.00000000	    -13.88695040	    -10.94642191	     -8.07204363	     50.21539815	     90.00000001	      0.00000000	      0.00000000
      8.35000000	      5.35699536	     -6.11621394	     -9.73627993	      0.48545001	      0.94520272	      0.17218364	     11.93021978	     -6.56653449	    -12.99306384	     38.11203251	      2.40808811	      0.66518045	      5.75501715	      0.69081227	     -7.50000231	      3.62757955	     -5.67596489	    -26.51750626	     29.82051225	     -2.28685160	      0.52046612	     17.35999751	      3.63516291	     -7.50000231	    -20.40713205	      2.30822718	      0.89342410	      9.39949856	    -12.13978205	     18.87569903	     44.49871221	     90.00000001	      0.00000000	      0.00000000	    -14.00392231	    -10.85694214	     -8.06251986	     50.18014569	     90.00000001	      0.00000000	      0.00000000
      8.36000000	      5.30436557	     -6.07170479	     -9.86384335	      0.48675690	      0.94510398	      0.17223362	     12.27797914	     -6.51199293	    -13.34806620	     37.27907211	      2.56496434	      0.65064255	      5.80015380	      0.90054927	     -7.50000231	      3.52262082	     -5.59018425	    -26.60120189	     29.70918579	     -2.26025353	      0.51852311	     17.43508342	      3.56720288	     -7.50000231	    -20.32349123	      2.19607650	      1.03620062	      9.29893540	    -12.18567856	     18.84610851	     44.35404880	     90.00000001	      0.00000000	      0.00000000	    -14.07733431	    -10.71787328	     -8.04209687	     50.16089761	     90.00000001	      0.00000000	      0.00000000
      8.37000000	      5.40405346	     -6.19302882	     -9.81055771	      0.48818051	      0.94529941	      0.17226194	     12.32781363	     -6.29572781	    -14.97223224	     36.22824644	      1.96610128	      0.63230218	      6.43378805	      5.26177764	     -7.50000216	      3.23377478	     -5.64584523	    -26.16475892	     29.60398298	     -2.10702995	      0.51668697	     17.38641256	      3.00451974	     -7.50000216	    -20.44799594	      2.26924069	      1.08253435	      9.35178869	    -11.78028800	     17.75125250	     43.32493265	     90.00000001	      0.00000000	      0.00000000	    -14.00962452	    -10.51870494	     -8.20307012	     49.99416642	     90.00000001	      0.00000000	      0.00000000
      8.38000000	      5.33366670	     -6.18734314	     -9.91978268	      0.48936414	      0.94520435	      0.17240074	     12.67274075	     -6.13679071	    -15.18460905	     35.35111173	      2.19573873	      0.61699329	      6.32916767	      5.65582888	     -7.50000214	      3.16301841	     -5.63489953	    -26.18388561	     29.52859890	     -2.05197697	      0.51537127	     17.43338403	      2.97033653	     -7.50000214	    -20.38239856	      2.19696169	      1.21330621	      9.26374200	    -11.84788853	     17.66420533	     43.22050840	     90.00000001	      0.00000000	      0.00000000	    -14.07700495	    -10.36083285	     -8.17519802	     49.98161448	     90.00000001	      0.00000000	      0.00000000
      8.39000000	      5.29823656	     -6.21874464	    -10.04089190	      0.49057338	      0.94514438	      0.17252179	     12.98282989	     -5.95794396	    -15.55025572	     34.49381278	      2.35859844	      0.60203060	      6.16138468	      6.51058194	     -7.50000211	      3.03497567	     -5.67034251	    -26.17480287	     29.47265883	     -1.93894731	      0.51439494	     17.49354684	      2.90106276	     -7.50000211	    -20.36430107	      2.18893134	      1.35384198	      9.21658363	    -11.85178991	     17.52174514	     43.05744965	     90.00000001	      0.00000000	      0.00000000	    -14.14427966	    -10.18785920	     -8.14605316	     49.87227316	     90.00000001	      0.00000000	      0.00000000
